<svg width="20" height="20" viewBox="0 0 20 20" fill="none" xmlns="http://www.w3.org/2000/svg">
<path fill-rule="evenodd" clip-rule="evenodd" d="M14.2929 0.292893C14.6834 -0.0976313 15.3166 -0.0976308 15.7071 0.292894L19.7071 4.2929C19.8946 4.48044 20 4.73479 20 5.00001C20 5.26522 19.8946 5.51958 19.7071 5.70711L15.7071 9.70711C15.3166 10.0976 14.6834 10.0976 14.2929 9.70711C13.9024 9.31658 13.9024 8.68342 14.2929 8.29289L16.5858 6.00001L1 6.00001C0.447715 6.00001 0 5.55229 0 5.00001C0 4.44772 0.447715 4.00001 1 4.00001L16.5858 4.00001L14.2929 1.70711C13.9024 1.31658 13.9024 0.683417 14.2929 0.292893ZM5.70712 10.2929C6.09765 10.6834 6.09765 11.3166 5.70712 11.7071L3.41423 14L19 14C19.5523 14 20 14.4477 20 15C20 15.5523 19.5523 16 19 16L3.41423 16L5.70712 18.2929C6.09765 18.6834 6.09765 19.3166 5.70712 19.7071C5.3166 20.0976 4.68343 20.0976 4.29291 19.7071L0.292908 15.7071C-0.0976163 15.3166 -0.0976167 14.6834 0.292907 14.2929L4.29291 10.2929C4.68343 9.90236 5.3166 9.90236 5.70712 10.2929Z" fill="#232326"/>
</svg>
